<svg xmlns="http://www.w3.org/2000/svg" version="1.1" xlink="http://www.w3.org/1999/xlink" xmlns:svgjs="http://svgjs.com/svgjs" width="100%" height="100%" viewBox="5.5 22.333999633789062 89 55.332000732421875"><g fill="#ce200d"><path d="M66.833 22.334H33.167C17.911 22.334 5.5 34.745 5.5 50s12.411 27.666 27.667 27.666h33.666C82.089 77.666 94.5 65.255 94.5 50S82.089 22.334 66.833 22.334zm0 49.332H33.167C21.22 71.666 11.5 61.946 11.5 50s9.72-21.666 21.667-21.666h33.666C78.78 28.334 88.5 38.054 88.5 50s-9.72 21.666-21.667 21.666zm-23.636-5.394L67.14 50 43.197 33.728v32.544zm6-21.212L56.466 50l-7.269 4.94v-9.88z"></path></g></svg>