<svg xmlns="http://www.w3.org/2000/svg" version="1.1" xlink="http://www.w3.org/1999/xlink" xmlns:svgjs="http://svgjs.com/svgjs" width="100%" height="100%" viewBox="0.6299999952316284 -41.75 313.1399841308594 42.13999938964844"><g fill="#000000"><path d="M5.07 0L15.22 0L17.2 -20L19.28 0L29.23 0L33.77 -41.5L25.56 -41.5L23.34 -15.32L21.11 -41.5L13.38 -41.5L11.06 -15.32L8.75 -41.5L0.63 -41.5Z M46.55 -2.34C47.57 -0.52 49.44 0.39 52.18 0.39C53.44 0.39 54.53 -0.02 55.44 -0.82C56.36 -1.63 57.03 -2.75 57.45 -4.2L57.45 0L65.86 0L65.86 -26.96C65.86 -29.76 64.94 -31.93 63.1 -33.46C61.27 -34.99 58.88 -35.75 55.95 -35.75C52.28 -35.75 49.63 -35.01 48 -33.53C46.38 -32.05 45.56 -29.57 45.56 -26.09L45.56 -24.93L53.78 -24.93L53.78 -27.06C53.78 -27.77 53.95 -28.33 54.28 -28.75C54.62 -29.17 55.02 -29.38 55.47 -29.38C55.98 -29.38 56.43 -29.13 56.8 -28.63C57.17 -28.13 57.35 -27.41 57.35 -26.48L57.35 -22.95L57.35 -22.85L55.03 -22.08C52.39 -21.24 50.43 -20.48 49.14 -19.79C47.85 -19.09 46.84 -18.01 46.12 -16.52C45.39 -15.04 45.03 -12.92 45.03 -10.15C45.03 -6.76 45.54 -4.16 46.55 -2.34ZM56.89 -6.98C56.62 -6.45 56.16 -6.18 55.52 -6.18C54.26 -6.18 53.63 -7.23 53.63 -9.33L53.63 -13.87C53.63 -15.19 53.93 -16.22 54.53 -16.96C55.12 -17.7 56.05 -18.31 57.3 -18.8L57.3 -8.94C57.3 -8.17 57.17 -7.51 56.89 -6.98Z M81.46 -1.01C82.3 -0.08 83.83 0.39 86.05 0.39C86.92 0.39 87.82 0.31 88.73 0.17C89.65 0.02 90.35 -0.11 90.84 -0.24L90.84 -6.04C90.74 -6.04 90.55 -6.02 90.26 -5.99C89.97 -5.96 89.66 -5.94 89.34 -5.94C88.92 -5.94 88.66 -6.09 88.56 -6.38C88.47 -6.67 88.42 -7.12 88.42 -7.73L88.42 -27.59L90.84 -27.59L90.84 -34.02L88.42 -34.02L88.42 -41.5L80.21 -41.5L80.21 -34.02L77.84 -34.02L77.84 -27.59L80.21 -27.59L80.21 -5.51C80.21 -3.45 80.62 -1.95 81.46 -1.01Z M105.43 -2.56C107.13 -0.6 109.92 0.39 113.79 0.39C116.78 0.39 119.22 -0.44 121.11 -2.1C122.99 -3.76 123.93 -6.04 123.93 -8.94L123.93 -15.12L115.33 -15.12L115.38 -9.18C115.41 -8.31 115.26 -7.6 114.92 -7.05C114.58 -6.51 114.08 -6.23 113.4 -6.23C112.72 -6.23 112.22 -6.51 111.88 -7.08C111.54 -7.64 111.37 -8.33 111.37 -9.13L111.37 -26.28C111.37 -28.25 112.06 -29.23 113.45 -29.23C114.19 -29.23 114.69 -28.98 114.95 -28.48C115.2 -27.98 115.33 -27.27 115.33 -26.33L115.33 -21.36L123.93 -21.36L123.93 -26.77C123.93 -29.6 122.98 -31.81 121.08 -33.39C119.18 -34.97 116.72 -35.75 113.69 -35.75C110.92 -35.75 108.75 -35.27 107.19 -34.31C105.63 -33.34 104.52 -31.9 103.86 -29.98C103.2 -28.06 102.87 -25.58 102.87 -22.52L102.87 -11.6C102.87 -7.54 103.72 -4.53 105.43 -2.56Z M136.54 -41.75L136.54 0L145.24 0L145.24 -26.77C145.24 -27.48 145.41 -28.08 145.75 -28.58C146.09 -29.08 146.55 -29.33 147.13 -29.33C147.8 -29.33 148.32 -29.09 148.67 -28.6C149.03 -28.12 149.2 -27.49 149.2 -26.72L149.2 0L157.66 0L157.66 -27.25C157.66 -29.89 157.05 -31.97 155.82 -33.48C154.6 -35 152.79 -35.75 150.41 -35.75C147.87 -35.75 146.14 -34.47 145.24 -31.89L145.24 -41.75Z M170.37 -1.98L170.37 0L191.91 0L191.91 -7.83L180.61 -7.83C181.19 -8.92 181.84 -9.99 182.57 -11.02C183.29 -12.05 184.2 -13.22 185.3 -14.54C186.81 -16.41 188.03 -18.04 188.94 -19.42C189.86 -20.81 190.63 -22.43 191.26 -24.28C191.89 -26.13 192.2 -28.2 192.2 -30.49C192.2 -34.06 191.25 -36.83 189.35 -38.77C187.45 -40.72 184.76 -41.7 181.29 -41.7C178.45 -41.7 176.23 -41.17 174.62 -40.1C173.01 -39.04 171.88 -37.49 171.24 -35.46C170.59 -33.44 170.27 -30.84 170.27 -27.69L170.37 -25.12L179.11 -25.12L179.11 -30.2C179.11 -32.68 179.8 -33.92 181.19 -33.92C182.03 -33.92 182.61 -33.6 182.93 -32.98C183.25 -32.35 183.41 -31.47 183.41 -30.34C183.41 -28.44 183.11 -26.68 182.52 -25.05C181.92 -23.43 181.2 -21.98 180.34 -20.73C179.49 -19.47 178.34 -17.94 176.89 -16.14C175.47 -14.4 174.33 -12.88 173.46 -11.6C172.59 -10.31 171.86 -8.86 171.26 -7.25C170.66 -5.64 170.37 -3.88 170.37 -1.98Z M204.28 0L221.44 0L221.44 -8.07L212.74 -8.07L212.74 -17.59L220.57 -17.59L220.57 -25.41L212.74 -25.41L212.74 -33.48L220.91 -33.48L220.91 -41.5L204.28 -41.5Z M234.51 -2.34C235.52 -0.52 237.4 0.39 240.14 0.39C241.39 0.39 242.48 -0.02 243.4 -0.82C244.31 -1.63 244.98 -2.75 245.4 -4.2L245.4 0L253.81 0L253.81 -26.96C253.81 -29.76 252.89 -31.93 251.05 -33.46C249.22 -34.99 246.84 -35.75 243.9 -35.75C240.23 -35.75 237.58 -35.01 235.96 -33.53C234.33 -32.05 233.52 -29.57 233.52 -26.09L233.52 -24.93L241.73 -24.93L241.73 -27.06C241.73 -27.77 241.9 -28.33 242.24 -28.75C242.58 -29.17 242.97 -29.38 243.42 -29.38C243.94 -29.38 244.38 -29.13 244.75 -28.63C245.12 -28.13 245.31 -27.41 245.31 -26.48L245.31 -22.95L245.31 -22.85L242.99 -22.08C240.34 -21.24 238.38 -20.48 237.09 -19.79C235.8 -19.09 234.8 -18.01 234.07 -16.52C233.35 -15.04 232.98 -12.92 232.98 -10.15C232.98 -6.76 233.49 -4.16 234.51 -2.34ZM244.85 -6.98C244.57 -6.45 244.11 -6.18 243.47 -6.18C242.21 -6.18 241.58 -7.23 241.58 -9.33L241.58 -13.87C241.58 -15.19 241.88 -16.22 242.48 -16.96C243.07 -17.7 244 -18.31 245.26 -18.8L245.26 -8.94C245.26 -8.17 245.12 -7.51 244.85 -6.98Z M266.71 -35.37L266.71 0L275.17 0L275.17 -27.06C275.17 -27.51 275.88 -27.9 277.32 -28.24C278.75 -28.58 280.06 -28.75 281.25 -28.75L281.25 -35.8C279.71 -35.8 278.41 -35.42 277.36 -34.67C276.32 -33.91 275.58 -32.84 275.17 -31.45L275.17 -35.37Z M292.99 -35.37L292.99 0L301.45 0L301.45 -24.88C301.45 -26.2 301.59 -27.26 301.86 -28.05C302.13 -28.84 302.71 -29.23 303.58 -29.23C304.22 -29.23 304.69 -28.96 305 -28.41C305.31 -27.86 305.46 -27.2 305.46 -26.43L305.46 0L313.77 0L313.77 -27.3C313.77 -30 313.2 -32.09 312.06 -33.56C310.91 -35.02 309.15 -35.75 306.76 -35.75C305.31 -35.75 304.16 -35.3 303.29 -34.4C302.42 -33.5 301.8 -32.32 301.45 -30.87L301.45 -35.37Z"></path></g></svg>