<svg xmlns="http://www.w3.org/2000/svg" version="1.1" xlink="http://www.w3.org/1999/xlink" xmlns:svgjs="http://svgjs.com/svgjs" width="100%" height="100%" viewBox="0.9700000286102295 -37.4900016784668 271.8800048828125 38.17000198364258"><g fill="#000000"><path d="M26.33 -29.91L19.91 -29.91C19.55 -28.62 19.16 -27.15 18.72 -25.51C18.29 -23.87 17.81 -22.16 17.3 -20.39C16.78 -18.62 16.25 -16.85 15.7 -15.07C15.16 -13.3 14.59 -11.63 14.01 -10.05C13.56 -11.69 13.12 -13.48 12.68 -15.41C12.25 -17.35 11.82 -19.34 11.4 -21.4C10.98 -23.47 10.58 -25.52 10.19 -27.56C9.81 -29.61 9.45 -31.58 9.13 -33.48L0.97 -33.48C2.09 -27.88 3.39 -22.19 4.86 -16.43C6.32 -10.66 7.91 -5.19 9.62 0L16.52 0C17.65 -3.09 18.73 -6.34 19.76 -9.74C20.79 -13.13 21.82 -16.54 22.85 -19.95C23.88 -16.54 24.93 -13.13 25.99 -9.74C27.06 -6.34 28.15 -3.09 29.28 0L36.19 0C37.9 -5.19 39.48 -10.66 40.95 -16.43C42.41 -22.19 43.71 -27.88 44.84 -33.48L37.01 -33.48C36.69 -31.58 36.34 -29.61 35.97 -27.56C35.6 -25.52 35.22 -23.47 34.84 -21.4C34.45 -19.34 34.04 -17.35 33.6 -15.41C33.17 -13.48 32.74 -11.69 32.32 -10.05C31.81 -11.56 31.28 -13.21 30.73 -14.98C30.18 -16.75 29.64 -18.52 29.11 -20.29C28.58 -22.06 28.08 -23.78 27.61 -25.44C27.15 -27.1 26.72 -28.59 26.33 -29.91Z M57.55 -5.02C56.22 -5.02 55.19 -5.24 54.43 -5.68C53.67 -6.11 53.29 -6.89 53.29 -8.02C53.29 -8.6 53.42 -9.08 53.68 -9.47C53.94 -9.86 54.29 -10.16 54.74 -10.39C55.19 -10.61 55.72 -10.77 56.31 -10.85C56.91 -10.93 57.55 -10.97 58.22 -10.97C58.71 -10.97 59.24 -10.94 59.82 -10.87C60.4 -10.81 60.83 -10.74 61.12 -10.68L61.12 -5.22C60.73 -5.15 60.22 -5.11 59.57 -5.07C58.93 -5.04 58.25 -5.02 57.55 -5.02ZM56.97 -26.09C56.13 -26.09 55.3 -26.05 54.48 -25.97C53.66 -25.89 52.87 -25.79 52.13 -25.68C51.39 -25.57 50.71 -25.44 50.08 -25.29C49.45 -25.15 48.93 -25.01 48.51 -24.88L49.43 -19.09C50.3 -19.41 51.33 -19.66 52.52 -19.83C53.71 -20.01 54.92 -20.1 56.14 -20.1C57.98 -20.1 59.27 -19.73 60.01 -18.99C60.75 -18.25 61.12 -17.27 61.12 -16.04L61.12 -15.36C60.67 -15.49 60.08 -15.6 59.36 -15.68C58.63 -15.76 57.8 -15.8 56.87 -15.8C55.48 -15.8 54.15 -15.66 52.86 -15.39C51.57 -15.12 50.43 -14.67 49.43 -14.06C48.43 -13.45 47.63 -12.63 47.04 -11.6C46.44 -10.57 46.14 -9.31 46.14 -7.83C46.14 -6.28 46.4 -4.98 46.92 -3.91C47.43 -2.85 48.17 -1.99 49.14 -1.33C50.1 -0.67 51.26 -0.19 52.59 0.1C53.93 0.39 55.42 0.53 57.06 0.53C59.67 0.53 61.89 0.38 63.73 0.07C65.57 -0.23 67 -0.5 68.03 -0.72L68.03 -15.7C68.03 -17.28 67.85 -18.71 67.5 -20C67.14 -21.29 66.54 -22.39 65.69 -23.29C64.83 -24.19 63.7 -24.88 62.28 -25.37C60.86 -25.85 59.09 -26.09 56.97 -26.09Z M74.31 -31.74L74.31 -10.39C74.31 -8.75 74.46 -7.25 74.77 -5.89C75.08 -4.54 75.62 -3.39 76.39 -2.44C77.16 -1.49 78.19 -0.75 79.48 -0.22C80.77 0.31 82.4 0.58 84.36 0.58C85.91 0.58 87.21 0.45 88.28 0.19C89.34 -0.06 90.3 -0.37 91.17 -0.72L90.16 -6.33C89.48 -6.07 88.73 -5.87 87.91 -5.73C87.09 -5.58 86.29 -5.51 85.52 -5.51C83.91 -5.51 82.84 -5.96 82.31 -6.86C81.78 -7.76 81.51 -8.97 81.51 -10.48L81.51 -19.42L90.16 -19.42L90.16 -25.41L81.51 -25.41L81.51 -32.9Z M93.83 -12.71C93.83 -10.81 94.08 -9.04 94.58 -7.42C95.08 -5.79 95.87 -4.38 96.95 -3.19C98.03 -2 99.4 -1.05 101.08 -0.36C102.75 0.33 104.75 0.68 107.07 0.68C108.58 0.68 109.97 0.55 111.23 0.29C112.48 0.03 113.53 -0.27 114.37 -0.63L113.35 -6.52C112.51 -6.17 111.6 -5.91 110.6 -5.75C109.6 -5.59 108.66 -5.51 107.8 -5.51C105.35 -5.51 103.63 -6.14 102.65 -7.39C101.67 -8.65 101.18 -10.42 101.18 -12.71C101.18 -14.87 101.7 -16.6 102.75 -17.93C103.79 -19.25 105.38 -19.91 107.51 -19.91C108.5 -19.91 109.41 -19.81 110.21 -19.62C111.02 -19.42 111.76 -19.2 112.43 -18.94L113.93 -24.69C112.87 -25.14 111.77 -25.49 110.65 -25.73C109.52 -25.97 108.28 -26.09 106.93 -26.09C104.86 -26.09 103.03 -25.74 101.42 -25.03C99.81 -24.32 98.44 -23.36 97.31 -22.15C96.18 -20.95 95.32 -19.53 94.73 -17.9C94.13 -16.27 93.83 -14.54 93.83 -12.71Z M119.2 0L126.4 0L126.4 -19.33C126.85 -19.46 127.36 -19.58 127.92 -19.69C128.48 -19.8 129.09 -19.86 129.73 -19.86C131.34 -19.86 132.44 -19.38 133.04 -18.41C133.64 -17.44 133.93 -15.8 133.93 -13.48L133.93 0L141.13 0L141.13 -14.35C141.13 -16.09 140.96 -17.67 140.63 -19.09C140.29 -20.5 139.71 -21.73 138.89 -22.76C138.07 -23.79 136.97 -24.59 135.6 -25.15C134.23 -25.71 132.52 -25.99 130.46 -25.99C129.75 -25.99 129.01 -25.92 128.26 -25.78C127.5 -25.63 126.88 -25.48 126.4 -25.32L126.4 -37.49L119.2 -36.33Z M168.24 -24.69C168.24 -26.17 168.02 -27.5 167.59 -28.68C167.15 -29.85 166.48 -30.85 165.56 -31.67C164.64 -32.49 163.47 -33.13 162.06 -33.58C160.64 -34.03 158.95 -34.26 156.98 -34.26C154.82 -34.26 152.8 -33.83 150.92 -32.98C149.03 -32.12 147.38 -31.04 145.97 -29.71L149.54 -24.69C149.77 -24.92 150.1 -25.21 150.56 -25.58C151.01 -25.95 151.55 -26.32 152.17 -26.7C152.8 -27.07 153.49 -27.39 154.25 -27.66C155.01 -27.94 155.82 -28.07 156.69 -28.07C157.88 -28.07 158.88 -27.78 159.69 -27.2C160.49 -26.62 160.9 -25.62 160.9 -24.21C160.9 -23.56 160.75 -22.93 160.46 -22.3C160.17 -21.67 159.77 -21.04 159.25 -20.41C158.74 -19.79 158.14 -19.14 157.46 -18.48C156.79 -17.82 156.06 -17.12 155.29 -16.38C154.29 -15.41 153.29 -14.45 152.27 -13.48C151.26 -12.51 150.35 -11.48 149.54 -10.36C148.74 -9.25 148.08 -8.05 147.58 -6.76C147.08 -5.48 146.84 -4.06 146.84 -2.51L146.84 -1.35C146.84 -0.81 146.87 -0.35 146.93 0L169.25 0L169.25 -6.04L154.86 -6.04C154.95 -6.36 155.2 -6.77 155.6 -7.27C156.01 -7.77 156.47 -8.31 156.98 -8.89C157.5 -9.47 158.04 -10.04 158.6 -10.61C159.16 -11.17 159.69 -11.68 160.17 -12.13C161.1 -13 162.06 -13.92 163.02 -14.88C163.99 -15.85 164.86 -16.85 165.63 -17.9C166.4 -18.95 167.03 -20.04 167.51 -21.16C168 -22.29 168.24 -23.47 168.24 -24.69Z M175.58 0L199.31 0L199.31 -6.33L183.12 -6.33L183.12 -14.4L196.51 -14.4L196.51 -20.58L183.12 -20.58L183.12 -27.15L198.2 -27.15L198.2 -33.48L175.58 -33.48Z M213.51 -5.02C212.19 -5.02 211.15 -5.24 210.4 -5.68C209.64 -6.11 209.26 -6.89 209.26 -8.02C209.26 -8.6 209.39 -9.08 209.65 -9.47C209.9 -9.86 210.26 -10.16 210.71 -10.39C211.16 -10.61 211.68 -10.77 212.28 -10.85C212.88 -10.93 213.51 -10.97 214.19 -10.97C214.67 -10.97 215.2 -10.94 215.78 -10.87C216.36 -10.81 216.8 -10.74 217.09 -10.68L217.09 -5.22C216.7 -5.15 216.19 -5.11 215.54 -5.07C214.9 -5.04 214.22 -5.02 213.51 -5.02ZM212.93 -26.09C212.1 -26.09 211.27 -26.05 210.44 -25.97C209.62 -25.89 208.84 -25.79 208.1 -25.68C207.36 -25.57 206.68 -25.44 206.05 -25.29C205.42 -25.15 204.9 -25.01 204.48 -24.88L205.4 -19.09C206.27 -19.41 207.3 -19.66 208.49 -19.83C209.68 -20.01 210.89 -20.1 212.11 -20.1C213.95 -20.1 215.24 -19.73 215.98 -18.99C216.72 -18.25 217.09 -17.27 217.09 -16.04L217.09 -15.36C216.64 -15.49 216.05 -15.6 215.32 -15.68C214.6 -15.76 213.77 -15.8 212.84 -15.8C211.45 -15.8 210.11 -15.66 208.83 -15.39C207.54 -15.12 206.39 -14.67 205.4 -14.06C204.4 -13.45 203.6 -12.63 203 -11.6C202.41 -10.57 202.11 -9.31 202.11 -7.83C202.11 -6.28 202.37 -4.98 202.88 -3.91C203.4 -2.85 204.14 -1.99 205.11 -1.33C206.07 -0.67 207.22 -0.19 208.56 0.1C209.9 0.39 211.39 0.53 213.03 0.53C215.64 0.53 217.86 0.38 219.7 0.07C221.53 -0.23 222.97 -0.5 224 -0.72L224 -15.7C224 -17.28 223.82 -18.71 223.47 -20C223.11 -21.29 222.51 -22.39 221.65 -23.29C220.8 -24.19 219.66 -24.88 218.25 -25.37C216.83 -25.85 215.06 -26.09 212.93 -26.09Z M245.84 -19.04L247.04 -24.98C246.66 -25.14 246.19 -25.28 245.64 -25.39C245.1 -25.5 244.55 -25.6 244 -25.68C243.45 -25.76 242.91 -25.83 242.36 -25.87C241.81 -25.92 241.34 -25.95 240.96 -25.95C238.8 -25.95 236.84 -25.74 235.09 -25.34C233.33 -24.94 231.81 -24.51 230.52 -24.06L230.52 0L237.72 0L237.72 -19.42C238.04 -19.52 238.52 -19.61 239.14 -19.69C239.77 -19.77 240.31 -19.81 240.76 -19.81C241.76 -19.81 242.7 -19.72 243.57 -19.54C244.44 -19.37 245.19 -19.2 245.84 -19.04Z M250.91 -24.55L250.91 0L258.11 0L258.11 -19.62C258.56 -19.68 259.08 -19.74 259.66 -19.79C260.24 -19.83 260.78 -19.86 261.3 -19.86C262.97 -19.86 264.12 -19.38 264.73 -18.41C265.34 -17.44 265.65 -15.8 265.65 -13.48L265.65 0L272.85 0L272.85 -14.35C272.85 -16.09 272.67 -17.67 272.31 -19.09C271.96 -20.5 271.36 -21.73 270.53 -22.76C269.69 -23.79 268.55 -24.59 267.12 -25.15C265.69 -25.71 263.89 -25.99 261.73 -25.99C259.61 -25.99 257.58 -25.84 255.64 -25.54C253.71 -25.23 252.13 -24.9 250.91 -24.55Z"></path></g></svg>